<?xml version="1.0" standalone="no"?>
<!DOCTYPE svg PUBLIC "-//W3C//DTD SVG 20010904//EN"
 "http://www.w3.org/TR/2001/REC-SVG-20010904/DTD/svg10.dtd">
<svg version="1.0" xmlns="http://www.w3.org/2000/svg"
 width="1173.000000pt" height="1173.000000pt" viewBox="0 0 1173.000000 1173.000000"
 preserveAspectRatio="xMidYMid meet">
<metadata>
Created by potrace 1.14, written by Peter Selinger 2001-2017
</metadata>
<g transform="translate(0.000000,1173.000000) scale(0.100000,-0.100000)"
fill="#000000" stroke="none">
<path d="M4500 11686 c-30 -14 -107 -46 -170 -71 -105 -44 -201 -85 -365 -160
-736 -335 -1445 -775 -1853 -1150 -382 -352 -739 -881 -957 -1419 -99 -247
-191 -572 -220 -781 -2 -16 -9 -61 -14 -100 -32 -225 -36 -675 -7 -845 3 -14
14 -79 25 -145 71 -418 234 -831 469 -1190 63 -95 204 -288 227 -310 6 -5 29
-32 50 -60 22 -27 53 -65 70 -84 16 -19 35 -39 40 -45 180 -204 502 -523 730
-723 l71 -61 13 -79 c7 -43 15 -86 17 -95 2 -10 6 -27 8 -38 108 -484 367
-999 695 -1382 148 -172 430 -434 702 -652 8 -7 67 -47 130 -88 418 -278 858
-450 1344 -524 55 -8 111 -17 125 -19 174 -27 586 -24 805 6 39 5 88 12 110
15 22 3 92 16 155 29 806 170 1510 625 1992 1286 88 120 228 344 228 364 0 8
4 16 9 20 12 7 89 166 137 282 84 201 152 434 199 682 2 14 7 45 10 70 3 25 7
55 9 66 2 11 7 57 11 103 l7 82 61 58 c86 80 421 414 493 492 155 167 361 428
477 605 247 379 431 883 482 1317 27 232 27 620 0 808 -2 14 -6 45 -9 70 -13
96 -70 360 -102 471 -154 529 -411 1015 -781 1474 -315 391 -844 790 -1553
1172 -102 55 -457 233 -555 278 -246 113 -668 293 -649 276 5 -4 106 -58 224
-118 316 -163 648 -354 880 -507 107 -70 305 -216 350 -258 14 -13 48 -43 75
-67 73 -64 280 -267 355 -347 512 -548 845 -1174 979 -1841 28 -143 36 -186
47 -283 3 -25 7 -61 9 -80 23 -175 23 -637 1 -781 -2 -13 -7 -51 -10 -84 -7
-63 -8 -74 -27 -178 -6 -34 -13 -75 -16 -92 -11 -68 -67 -266 -100 -355 -131
-350 -327 -592 -593 -731 -70 -37 -177 -75 -185 -67 -3 3 -26 59 -51 124 -24
65 -61 154 -81 196 -33 71 -35 79 -21 95 9 10 41 60 72 112 281 464 430 1046
430 1671 0 92 -10 254 -18 295 -2 11 -7 40 -11 65 -21 135 -103 420 -160 555
-46 108 -123 261 -193 382 -99 174 -84 149 -186 298 -235 343 -548 689 -916
1017 -96 85 -320 268 -328 268 -5 0 22 -31 88 -100 30 -31 166 -200 237 -295
352 -468 641 -1022 813 -1559 71 -221 93 -316 114 -485 12 -92 13 -370 3 -441
-15 -99 -22 -136 -43 -220 -65 -260 -195 -508 -379 -723 l-67 -77 -116 114
c-65 63 -142 137 -172 165 l-55 51 25 21 c298 244 439 610 380 984 -7 39 -28
115 -47 170 -40 114 -34 97 -188 505 l-115 305 5 -150 c2 -82 8 -238 12 -345
13 -334 9 -483 -16 -580 -36 -143 -80 -222 -175 -316 -64 -63 -101 -91 -165
-122 -80 -38 -86 -40 -192 -41 -93 -2 -115 1 -142 17 -121 73 -339 174 -515
238 -87 32 -305 97 -362 108 -135 27 -294 56 -335 61 -27 3 -68 8 -90 10 -174
22 -490 21 -695 0 -233 -25 -488 -81 -715 -158 -173 -59 -261 -96 -438 -185
l-147 -74 -103 0 c-134 1 -202 26 -307 110 -129 104 -190 202 -232 370 -25 98
-28 249 -15 587 16 400 18 480 14 475 -4 -5 -65 -163 -99 -260 -11 -30 -26
-70 -34 -88 -8 -17 -21 -51 -29 -75 -7 -23 -34 -96 -60 -162 -25 -66 -56 -145
-67 -175 -67 -183 -86 -346 -61 -521 37 -258 162 -480 367 -658 l39 -33 -74
-72 c-77 -75 -159 -162 -218 -230 l-34 -40 -46 50 c-81 87 -110 125 -176 223
-149 225 -230 437 -281 741 -19 116 -7 460 21 590 3 14 8 39 11 55 49 273 306
916 493 1233 17 29 31 55 31 57 0 10 147 246 218 350 165 241 312 428 450 572
56 59 36 50 -48 -20 -8 -6 -37 -30 -64 -51 -49 -39 -70 -56 -127 -106 -16 -14
-60 -52 -98 -85 -85 -73 -413 -404 -496 -499 -33 -38 -65 -74 -70 -80 -20 -21
-172 -212 -233 -292 -174 -231 -369 -571 -460 -804 -16 -41 -33 -84 -37 -95
-5 -11 -9 -22 -10 -25 -1 -3 -5 -12 -8 -20 -6 -14 -54 -176 -63 -212 -2 -10
-7 -28 -10 -40 -17 -70 -43 -235 -50 -313 -11 -138 -5 -480 10 -562 2 -10 7
-53 10 -95 4 -42 9 -87 12 -100 2 -13 11 -61 19 -108 20 -112 19 -110 49 -225
86 -338 207 -613 388 -881 l68 -101 -24 -59 c-13 -32 -41 -112 -61 -176 -43
-134 -27 -125 -160 -85 -156 47 -294 133 -420 261 -190 192 -313 429 -400 771
-18 72 -36 148 -39 170 -3 22 -7 49 -10 60 -2 11 -7 43 -10 70 -4 28 -9 57
-11 65 -2 8 -7 55 -10 104 -4 50 -9 99 -11 110 -7 31 -7 481 0 556 12 145 18
191 37 315 11 72 24 146 29 165 5 19 12 50 15 69 10 58 65 253 102 361 162
476 420 910 793 1335 67 77 356 362 451 446 123 108 124 109 249 198 94 68
159 111 325 216 165 105 545 315 810 449 130 66 158 86 55 42z m1726 -4020
c56 -4 110 -8 120 -10 11 -2 42 -7 69 -10 292 -37 640 -149 915 -293 392 -206
631 -416 869 -768 74 -110 171 -276 171 -294 0 -6 5 -11 10 -11 17 0 11 -18
-7 -24 -10 -3 -52 -8 -93 -11 -41 -4 -86 -8 -100 -10 -14 -2 -50 -6 -80 -10
-30 -3 -66 -8 -80 -10 -14 -2 -45 -7 -70 -10 -344 -48 -717 -162 -910 -278
-180 -108 -369 -324 -558 -638 -58 -97 -196 -366 -230 -449 l-23 -55 43 41
c24 22 54 51 68 63 37 34 281 216 307 230 18 9 49 8 140 -3 65 -8 152 -18 193
-22 41 -3 83 -8 92 -9 41 -8 287 -19 433 -19 321 0 406 22 512 133 77 80 164
292 188 461 11 79 11 78 63 75 79 -5 153 -15 232 -32 85 -18 102 -25 106 -44
2 -8 10 -50 19 -94 63 -314 66 -667 10 -990 -23 -130 -41 -212 -65 -290 -83
-269 -166 -456 -298 -675 -177 -292 -434 -575 -707 -776 -55 -41 -104 -77
-110 -82 -35 -28 -215 -132 -313 -182 -189 -94 -357 -159 -552 -211 -112 -30
-133 -35 -277 -59 -237 -40 -595 -47 -821 -15 -18 2 -52 7 -75 10 -458 63
-996 300 -1352 596 -120 100 -294 302 -411 479 -216 324 -362 692 -425 1065
-5 33 -12 71 -14 85 -29 164 -26 584 5 785 10 61 11 68 31 165 20 103 52 201
68 209 17 8 173 47 226 56 17 3 64 7 105 11 41 3 81 7 87 9 14 5 14 4 39 -130
42 -227 134 -398 253 -474 55 -36 88 -47 170 -58 104 -15 635 -6 727 11 11 2
57 7 104 11 47 4 92 8 100 10 8 2 44 6 80 10 36 4 72 9 81 10 25 5 283 -185
395 -291 21 -19 39 -32 42 -30 6 7 -92 211 -176 366 -172 317 -369 568 -557
711 -157 119 -525 249 -832 295 -21 3 -45 7 -53 9 -37 10 -271 43 -355 50 -39
3 -79 8 -90 10 -11 2 -37 4 -57 4 -21 1 -38 6 -38 12 0 14 119 195 182 277
391 506 916 856 1528 1021 95 25 261 58 334 66 32 4 67 8 79 11 12 2 69 7 127
10 58 4 106 7 107 8 4 3 210 -2 299 -8z m-2111 -1941 c231 -44 483 -150 807
-340 9 -5 36 -20 59 -33 67 -37 252 -153 269 -169 13 -13 13 -14 0 -9 -8 3
-33 8 -55 11 -22 3 -67 10 -100 15 -33 5 -76 11 -95 14 -19 2 -78 12 -130 21
-52 9 -108 18 -125 21 -99 15 -341 66 -410 86 -138 40 -245 107 -352 221 -62
67 -146 181 -138 189 7 7 184 -11 270 -27z m4003 -8 c-6 -12 -26 -42 -44 -65
-135 -177 -261 -274 -422 -321 -65 -20 -260 -64 -332 -75 -19 -3 -44 -7 -55
-9 -49 -10 -102 -19 -125 -22 -14 -2 -68 -11 -120 -19 -52 -9 -113 -18 -135
-21 -22 -4 -51 -8 -64 -10 -72 -12 -115 -17 -111 -13 3 3 50 33 105 67 55 34
107 66 115 71 14 9 289 163 321 180 210 111 405 189 540 215 98 19 141 26 189
32 30 3 56 6 57 7 1 0 22 2 47 3 44 2 46 1 34 -20z"/>
<path d="M1776 1099 c-21 -5 -52 -19 -70 -31 -65 -46 -88 -82 -134 -213 -12
-33 -41 -116 -66 -185 -24 -69 -69 -195 -99 -280 -31 -85 -72 -200 -91 -255
-20 -55 -36 -103 -36 -107 0 -3 47 -6 104 -6 104 -1 104 -1 114 26 6 15 38
106 71 202 105 309 198 574 214 612 27 64 89 75 123 23 15 -22 17 -68 18 -353
l2 -327 27 -52 c41 -80 118 -129 218 -139 125 -12 234 52 271 161 9 28 55 169
102 315 144 444 142 439 207 425 58 -13 59 -21 59 -480 l0 -415 100 1 100 1 0
432 c0 266 -4 445 -10 468 -46 163 -277 238 -424 137 -51 -35 -75 -78 -121
-221 -160 -497 -197 -608 -211 -619 -27 -23 -61 -21 -90 5 l-28 24 -1 328 c-1
308 -3 332 -22 375 -51 114 -193 178 -327 148z"/>
<path d="M3180 1102 c-13 -2 -15 -68 -15 -540 l0 -537 93 -2 c89 -2 92 -1 93
20 4 87 3 1040 -1 1050 -5 11 -127 18 -170 9z"/>
<path d="M3707 1095 c-90 -23 -164 -93 -187 -174 -6 -21 -10 -210 -10 -468 l0
-433 100 2 100 1 0 414 c0 421 2 442 38 469 16 12 47 12 73 0 20 -9 28 -30
157 -427 96 -294 121 -360 146 -384 44 -43 142 -83 191 -80 134 11 225 69 266
170 16 39 20 914 4 916 -48 5 -169 3 -178 -3 -9 -5 -12 -115 -13 -400 -2 -484
0 -444 -24 -468 -28 -28 -83 -27 -102 2 -15 25 -15 26 -153 446 -52 162 -103
306 -113 320 -55 86 -181 128 -295 97z"/>
<path d="M5109 1094 c-141 -25 -223 -77 -291 -183 -54 -87 -81 -203 -81 -357
0 -275 99 -440 303 -505 74 -24 270 -33 376 -18 258 36 386 214 385 534 0 101
-1 110 -22 200 -38 167 -146 278 -309 320 -78 20 -271 25 -361 9z m321 -188
c120 -26 181 -140 181 -341 0 -172 -42 -275 -131 -325 -42 -23 -55 -25 -189
-26 -79 -1 -162 3 -184 8 -109 24 -173 129 -180 295 -7 154 20 266 79 329 37
40 65 54 123 63 58 9 254 6 301 -3z"/>
<path d="M5928 1102 c-12 -2 -17 -18 -20 -65 -2 -34 -2 -76 0 -92 l3 -31 125
1 c76 0 128 -3 132 -10 4 -5 7 -206 7 -445 l0 -435 95 0 95 0 0 445 0 445 125
0 125 0 0 93 c0 50 -2 93 -5 93 -13 3 -668 4 -682 1z"/>
<path d="M7005 1102 c-79 -14 -134 -56 -162 -122 -9 -19 -40 -104 -69 -187
-82 -232 -158 -445 -204 -573 -23 -63 -47 -134 -55 -158 l-13 -42 99 2 99 1
16 46 c10 25 23 60 29 77 l13 31 289 0 289 0 28 -78 28 -78 99 1 c54 1 99 3
99 4 0 2 -59 169 -131 371 -245 688 -225 642 -299 680 -43 22 -114 33 -155 25z
m130 -357 c120 -338 132 -375 126 -376 -26 -4 -425 -3 -431 1 -11 8 176 523
196 537 34 25 53 -5 109 -162z"/>
<path d="M7708 1090 c-7 -31 -1 -697 6 -750 30 -202 218 -332 472 -324 223 7
364 104 415 284 9 32 12 153 13 423 1 207 -1 377 -4 378 -25 4 -158 4 -170 0
-13 -5 -15 -54 -16 -371 0 -351 -1 -366 -21 -405 -42 -81 -105 -115 -217 -119
-129 -6 -224 39 -268 124 -22 44 -22 50 -23 407 0 315 -2 363 -15 364 -8 1
-50 2 -92 3 -61 1 -78 -2 -80 -14z"/>
<path d="M8780 1102 c-7 -3 -10 -192 -10 -543 l0 -539 95 2 95 1 0 199 c0 109
2 198 5 198 4 0 243 -145 545 -329 74 -46 138 -85 142 -88 4 -2 7 48 7 111
l-1 115 -217 121 c-188 104 -211 120 -181 121 200 3 304 55 362 177 32 68 32
217 -1 283 -40 84 -117 144 -211 164 -34 8 -609 14 -630 7z m616 -205 c71 -37
84 -139 26 -205 -30 -34 -59 -38 -267 -38 l-190 1 -3 130 -3 131 203 -1 c167
-1 209 -4 234 -18z"/>
<path d="M10040 1098 c-80 -9 -162 -49 -203 -100 -90 -112 -83 -320 14 -402
l31 -26 -40 -44 c-105 -114 -91 -312 29 -420 85 -77 100 -79 462 -82 l317 -2
0 94 c0 83 -2 94 -17 95 -10 0 -146 1 -303 2 -319 2 -327 4 -356 72 -25 61
-18 99 24 145 l39 40 184 1 c101 0 239 0 307 0 l122 -1 0 95 0 95 -290 0
c-314 0 -343 4 -375 53 -43 66 -21 156 45 186 32 14 79 16 328 16 l292 0 0 95
0 95 -273 0 c-149 0 -301 -3 -337 -7z"/>
</g>
</svg>
