<?xml version="1.0" encoding="UTF-8"?>
<!DOCTYPE svg PUBLIC "-//W3C//DTD SVG 1.1//EN" "http://www.w3.org/Graphics/SVG/1.1/DTD/svg11.dtd">
<svg xmlns="http://www.w3.org/2000/svg" version="1.1" width="1173px" height="1173px" style="shape-rendering:geometricPrecision; text-rendering:geometricPrecision; image-rendering:optimizeQuality; fill-rule:evenodd; clip-rule:evenodd" xmlns:xlink="http://www.w3.org/1999/xlink">
<g><path style="opacity:0.987" fill="#357cc5" d="M 458.5,-0.5 C 459.5,-0.5 460.5,-0.5 461.5,-0.5C 423.099,18.5311 385.766,39.3644 349.5,62C 279.833,108.544 227.333,169.711 192,245.5C 160.604,321.425 154.271,399.425 173,479.5C 180.39,511.464 195.89,538.631 219.5,561C 233.142,572.486 248.808,579.653 266.5,582.5C 269.36,570.921 273.026,559.588 277.5,548.5C 242.394,497.467 223.894,440.8 222,378.5C 219.584,339.999 225.917,302.999 241,267.5C 260.352,224.762 285.686,186.096 317,151.5C 344.2,121.791 373.7,94.7914 405.5,70.5C 350.679,131.046 310.846,201.046 286,280.5C 267.62,341.558 277.286,397.558 315,448.5C 318.799,453.301 322.966,457.801 327.5,462C 338.125,451.538 348.792,440.705 359.5,429.5C 325.009,400.53 312.509,363.863 322,319.5C 332.875,289.707 344.041,260.041 355.5,230.5C 355.833,231.5 356.167,232.5 356.5,233.5C 354.47,265.134 353.637,296.8 354,328.5C 357.339,357.158 372.506,376.325 399.5,386C 406.167,386.667 412.833,386.667 419.5,386C 500.672,341.854 586.005,331.52 675.5,355C 702.159,362.552 727.493,373.219 751.5,387C 767.219,390.394 781.219,387.061 793.5,377C 808.105,364.959 816.272,349.459 818,330.5C 818.368,298.631 817.534,266.798 815.5,235C 815.833,234.167 816.167,233.333 816.5,232.5C 827.821,260.628 838.655,288.962 849,317.5C 860.503,363.655 848.003,401.822 811.5,432C 823.27,441.768 834.437,452.268 845,463.5C 887.233,417.771 902.567,364.104 891,302.5C 868.775,215.096 827.108,138.763 766,73.5C 765.333,72.8333 765.333,72.1667 766,71.5C 826.331,116.149 875.664,170.483 914,234.5C 951.163,299.983 960.497,369.316 942,442.5C 933.96,478.729 919.793,512.229 899.5,543C 905.52,555.896 910.854,569.063 915.5,582.5C 949.139,570.696 972.972,548.363 987,515.5C 1002.74,475.888 1010.24,434.721 1009.5,392C 1008.81,306.589 982.311,230.423 930,163.5C 898.852,124.343 862.685,90.843 821.5,63C 785.8,41.1447 749.133,20.8114 711.5,2C 785.949,28.7354 856.283,65.0687 922.5,111C 1003.2,171.161 1054.7,250.661 1077,349.5C 1097.21,459.162 1070.54,555.496 997,638.5C 976.333,661.833 954.333,683.833 931,704.5C 920.16,813.546 869.327,898.046 778.5,958C 685.223,1013.25 587.223,1023.25 484.5,988C 448.887,974.655 416.553,955.989 387.5,932C 364,912.5 342.5,891 323,867.5C 289.111,823.368 267.445,773.702 258,718.5C 218.154,684.325 182.154,646.658 150,605.5C 90.5411,520.431 73.8745,427.431 100,326.5C 130.821,219.272 194.321,137.772 290.5,82C 344.285,49.9408 400.285,22.4408 458.5,-0.5 Z M 585.5,405.5 C 654.198,402.998 716.198,421.831 771.5,462C 799.281,485.279 821.281,513.113 837.5,545.5C 807.509,548.721 777.842,553.887 748.5,561C 719.179,567.07 694.679,581.236 675,603.5C 652.73,630.846 634.897,661.012 621.5,694C 622.167,694.667 622.833,694.667 623.5,694C 636.01,681.482 649.677,670.482 664.5,661C 692.579,663.742 720.746,665.576 749,666.5C 763.101,667.158 776.934,665.658 790.5,662C 799.377,656.452 806.21,648.952 811,639.5C 816.645,626.732 820.145,613.399 821.5,599.5C 834.345,599.863 847.012,601.53 859.5,604.5C 880.913,716.103 848.913,808.936 763.5,883C 691.853,937.992 611.519,956.658 522.5,939C 478.088,928.958 438.421,909.625 403.5,881C 327.91,803.492 303.41,711.992 330,606.5C 335.148,603.832 340.648,601.999 346.5,601C 355.76,599.212 365.093,598.045 374.5,597.5C 375.895,613.746 380.395,629.079 388,643.5C 395.693,656.602 407.193,663.435 422.5,664C 439.5,664.667 456.5,664.667 473.5,664C 492.55,662.475 511.55,660.808 530.5,659C 545.361,668.856 559.361,679.856 572.5,692C 573.167,692.667 573.833,692.667 574.5,692C 560.342,657.824 541.509,626.657 518,598.5C 498.263,578.209 474.43,565.042 446.5,559C 417.066,552.107 387.399,546.94 357.5,543.5C 410.285,459.749 486.285,413.749 585.5,405.5 Z M 384.5,598.5 C 404.734,598.297 424.4,602.13 443.5,610C 470.754,622.289 496.754,636.622 521.5,653C 488.654,649.914 456.321,643.914 424.5,635C 407.794,626.458 394.461,614.291 384.5,598.5 Z M 799.5,599.5 C 803.514,599.334 807.514,599.501 811.5,600C 801.623,616.545 787.956,628.878 770.5,637C 738.637,645.699 706.303,651.699 673.5,655C 696.357,640.4 720.023,627.067 744.5,615C 762.229,607.251 780.563,602.084 799.5,599.5 Z"/></g>
<g><path style="opacity:0.958" fill="#8b9097" d="M 177.5,1061.5 C 192.914,1059.12 204.081,1064.79 211,1078.5C 212.291,1101.12 212.958,1123.78 213,1146.5C 214.713,1151.04 217.88,1152.54 222.5,1151C 224.041,1149.42 225.208,1147.59 226,1145.5C 233.741,1120.61 242.074,1095.94 251,1071.5C 258.616,1062.88 268.116,1059.72 279.5,1062C 290.145,1063.98 296.978,1070.15 300,1080.5C 300.5,1110.5 300.667,1140.5 300.5,1170.5C 293.5,1170.5 286.5,1170.5 279.5,1170.5C 279.667,1142.16 279.5,1113.83 279,1085.5C 276.839,1081.88 273.672,1080.71 269.5,1082C 268.299,1082.9 267.465,1084.07 267,1085.5C 259.066,1110.64 250.732,1135.64 242,1160.5C 236.583,1168.29 229.083,1171.96 219.5,1171.5C 205.379,1171.53 196.212,1164.87 192,1151.5C 191.667,1130.17 191.333,1108.83 191,1087.5C 189.789,1082.29 186.623,1080.46 181.5,1082C 179.263,1084.03 177.763,1086.53 177,1089.5C 167.723,1116.5 158.556,1143.5 149.5,1170.5C 141.804,1170.83 134.138,1170.5 126.5,1169.5C 137.432,1139.2 148.265,1108.87 159,1078.5C 162.426,1069.73 168.593,1064.06 177.5,1061.5 Z"/></g>
<g><path style="opacity:0.939" fill="#8c9097" d="M 315.5,1061.5 C 322.167,1061.5 328.833,1061.5 335.5,1061.5C 335.5,1097.83 335.5,1134.17 335.5,1170.5C 328.833,1170.5 322.167,1170.5 315.5,1170.5C 315.5,1134.17 315.5,1097.83 315.5,1061.5 Z"/></g>
<g><path style="opacity:0.965" fill="#8b9097" d="M 371.5,1061.5 C 382.882,1059.71 392.382,1063.05 400,1071.5C 408.926,1095.94 417.259,1120.61 425,1145.5C 426.828,1151 430.328,1152.5 435.5,1150C 436.893,1148.83 437.727,1147.33 438,1145.5C 438.5,1117.5 438.667,1089.5 438.5,1061.5C 445.5,1061.5 452.5,1061.5 459.5,1061.5C 459.667,1091.17 459.5,1120.84 459,1150.5C 455.172,1164.35 446.005,1171.35 431.5,1171.5C 422.211,1171.44 414.711,1167.77 409,1160.5C 400.265,1134.8 391.432,1109.13 382.5,1083.5C 378.283,1080.51 374.783,1081.18 372,1085.5C 371.5,1113.83 371.333,1142.16 371.5,1170.5C 364.167,1170.5 356.833,1170.5 349.5,1170.5C 349.056,1140.13 349.556,1109.8 351,1079.5C 354.646,1069.68 361.479,1063.68 371.5,1061.5 Z"/></g>
<g><path style="opacity:0.954" fill="#8b9097" d="M 514.5,1061.5 C 529.283,1060.21 543.617,1062.04 557.5,1067C 567.329,1072.5 573.829,1080.66 577,1091.5C 582.111,1110.06 581.444,1128.39 575,1146.5C 568.303,1160.51 557.136,1168.34 541.5,1170C 488.163,1176.33 465.663,1152.83 474,1099.5C 478.41,1076.92 491.91,1064.25 514.5,1061.5 Z M 512.5,1081.5 C 521.839,1081.33 531.173,1081.5 540.5,1082C 551.071,1084.24 557.238,1090.74 559,1101.5C 565.349,1146.47 546.849,1161.63 503.5,1147C 495.202,1138.61 491.535,1128.45 492.5,1116.5C 492.386,1108.18 493.886,1100.18 497,1092.5C 500.746,1086.72 505.913,1083.05 512.5,1081.5 Z"/></g>
<g><path style="opacity:0.966" fill="#1e1818" d="M 589.5,1061.5 C 613.5,1061.5 637.5,1061.5 661.5,1061.5C 661.5,1068.17 661.5,1074.83 661.5,1081.5C 653.167,1081.5 644.833,1081.5 636.5,1081.5C 636.5,1111.17 636.5,1140.83 636.5,1170.5C 629.833,1170.5 623.167,1170.5 616.5,1170.5C 616.5,1140.83 616.5,1111.17 616.5,1081.5C 607.5,1081.5 598.5,1081.5 589.5,1081.5C 589.5,1074.83 589.5,1068.17 589.5,1061.5 Z"/></g>
<g><path style="opacity:0.961" fill="#1e1919" d="M 698.5,1061.5 C 709.078,1059.92 717.578,1063.25 724,1071.5C 735.838,1104.35 747.672,1137.18 759.5,1170C 752.174,1170.5 744.841,1170.67 737.5,1170.5C 736.53,1165.42 734.863,1160.59 732.5,1156C 713.5,1155.33 694.5,1155.33 675.5,1156C 673.74,1160.44 672.073,1164.94 670.5,1169.5C 663.532,1170.5 656.532,1170.83 649.5,1170.5C 660.483,1138.03 671.65,1106.03 683,1074.5C 686.182,1067.68 691.349,1063.34 698.5,1061.5 Z M 702.5,1081.5 C 705.292,1081.45 707.125,1082.79 708,1085.5C 713.538,1101.95 719.371,1118.28 725.5,1134.5C 711.167,1135.83 696.833,1135.83 682.5,1134.5C 688.792,1116.62 695.458,1098.95 702.5,1081.5 Z"/></g>
<g><path style="opacity:0.965" fill="#1e1919" d="M 769.5,1061.5 C 776.167,1061.5 782.833,1061.5 789.5,1061.5C 789.333,1085.84 789.5,1110.17 790,1134.5C 794.476,1146.41 803.142,1152.08 816,1151.5C 827.062,1152.61 835.062,1148.27 840,1138.5C 841.463,1112.88 841.963,1087.22 841.5,1061.5C 848.167,1061.5 854.833,1061.5 861.5,1061.5C 861.667,1086.84 861.5,1112.17 861,1137.5C 858.527,1154.97 848.694,1165.81 831.5,1170C 814.858,1173.73 799.191,1171.39 784.5,1163C 775.878,1156.26 771.045,1147.42 770,1136.5C 769.5,1111.5 769.333,1086.5 769.5,1061.5 Z"/></g>
<g><path style="opacity:0.974" fill="#1e1919" d="M 965.5,1172.5 C 964.833,1172.5 964.167,1172.5 963.5,1172.5C 941.397,1158.61 919.064,1144.94 896.5,1131.5C 895.501,1144.48 895.168,1157.48 895.5,1170.5C 889.167,1170.5 882.833,1170.5 876.5,1170.5C 876.5,1134.17 876.5,1097.83 876.5,1061.5C 896.836,1061.33 917.169,1061.5 937.5,1062C 959.438,1066.67 968.271,1080.17 964,1102.5C 960.323,1114.84 952.156,1122.34 939.5,1125C 934.5,1125.33 929.5,1125.67 924.5,1126C 937.671,1133.75 951.005,1141.25 964.5,1148.5C 965.498,1156.47 965.831,1164.47 965.5,1172.5 Z M 895.5,1081.5 C 909.171,1081.33 922.837,1081.5 936.5,1082C 945.148,1087.09 946.981,1093.93 942,1102.5C 940.421,1104.04 938.587,1105.21 936.5,1106C 922.837,1106.5 909.171,1106.67 895.5,1106.5C 895.5,1098.17 895.5,1089.83 895.5,1081.5 Z"/></g>
<g><path style="opacity:0.958" fill="#1e1919" d="M 1003.5,1061.5 C 1024.17,1061.5 1044.83,1061.5 1065.5,1061.5C 1065.5,1068.17 1065.5,1074.83 1065.5,1081.5C 1045.16,1081.33 1024.83,1081.5 1004.5,1082C 996.628,1086.1 994.461,1092.27 998,1100.5C 999.543,1102.38 1001.38,1103.88 1003.5,1105C 1024.16,1105.5 1044.83,1105.67 1065.5,1105.5C 1065.5,1112.17 1065.5,1118.83 1065.5,1125.5C 1045.5,1125.33 1025.5,1125.5 1005.5,1126C 996.604,1129.92 994.104,1136.42 998,1145.5C 999.543,1147.38 1001.38,1148.88 1003.5,1150C 1024.16,1150.5 1044.83,1150.67 1065.5,1150.5C 1065.5,1157.17 1065.5,1163.83 1065.5,1170.5C 1044.16,1170.67 1022.83,1170.5 1001.5,1170C 981.543,1164.34 973.377,1151.17 977,1130.5C 978.525,1124.62 981.692,1119.79 986.5,1116C 977.107,1107.48 973.94,1096.98 977,1084.5C 980.724,1070.9 989.557,1063.23 1003.5,1061.5 Z"/></g>
</svg>
